# xmcd CD database file
#
# Track frame offsets:
#	150
#	14299
#	26248
#	37154
#	47043
#	58501
#	70059
#	83649
#	92164
#	103723
#	113302
#	122140
#	134062
#	145548
#	157954
#	174552
#	181853
#	194137
#	207854
#
# Disc length: 2906 seconds
#
# Revision: 6
# Processed by: cddbd v1.5.1PL2 Copyright (c) Steve Scherf et al.
# Submitted via: CDex 1.40Beta8
#
DISCID=080b5813
DTITLE=Hebert and Evandro - Hebert and Evandro ao Vivo
DYEAR=2005
DGENRE=Country
TTITLE0=Saudade dela
TTITLE1=Fruta Proibida
TTITLE2=Abre a Janela
TTITLE3=Mulher boa
TTITLE4=Garanhao da Madrugada
TTITLE5=Aviao das nove
TTITLE6=Vestido de seda
TTITLE7=Corpo e alma
TTITLE8=Sem voce
TTITLE9=Ate mais ve
TTITLE10=Xote das meninas
TTITLE11=Capricho de mulher
TTITLE12=Trinta dias por mes
TTITLE13=Destino ingrato
TTITLE14=Moreninha linha/Cabelo loiro
TTITLE15=Cutuche, cutuche
TTITLE16=Que pescar que nada
TTITLE17=Dengo
TTITLE18=Do outro lado da cidade
EXTD=YEAR: 2005 ID3G: 2
EXTT0=
EXTT1=
EXTT2=
EXTT3=
EXTT4=
EXTT5=
EXTT6=
EXTT7=
EXTT8=
EXTT9=
EXTT10=
EXTT11=
EXTT12=
EXTT13=
EXTT14=
EXTT15=
EXTT16=
EXTT17=
EXTT18=
PLAYORDER=
